<svg data-v-423bf9ae="" xmlns="http://www.w3.org/2000/svg" viewBox="0 0 164.92936147685677 60" class="font"><!----><!----><defs data-v-423bf9ae=""><linearGradient data-v-423bf9ae="" gradientTransform="rotate(25)" id="8475065f-8f9c-4bfa-9939-220162555ff7" x1="0%" y1="0%" x2="100%" y2="0%"><stop data-v-423bf9ae="" offset="0%" style="stop-color: rgb(78, 26, 112); stop-opacity: 1;"></stop><stop data-v-423bf9ae="" offset="100%" style="stop-color: rgb(43, 76, 242); stop-opacity: 1;"></stop></linearGradient></defs><g data-v-423bf9ae="" id="07233936-1f40-4f17-b1f9-662b9aee5222" fill="url(#8475065f-8f9c-4bfa-9939-220162555ff7)" transform="matrix(4.709576222757963,0,0,4.709576222757963,-2.684457228325485,-11.868131514684876)"><path d="M1.75 11.49L1.75 3.63L0.57 3.33L0.57 2.52L3.81 2.52L8.48 9.91L8.48 3.63L7.31 3.33L7.31 2.52L10.99 2.52L10.99 3.33L9.81 3.63L9.81 12.60L8.26 12.60L3.08 4.56L3.08 11.49L4.26 11.79L4.26 12.60L0.57 12.60L0.57 11.79L1.75 11.49ZM18.55 6.09L16.30 12.26Q15.95 13.08 15.66 13.65Q15.37 14.22 15.06 14.58Q14.74 14.94 14.36 15.10Q13.99 15.26 13.44 15.26L13.44 15.26Q13.10 15.26 12.82 15.17Q12.53 15.08 12.31 14.91Q12.10 14.74 11.97 14.52Q11.84 14.29 11.84 14.03L11.84 14.03Q11.84 13.54 12.13 13.22Q12.42 12.91 12.88 12.91L12.88 12.91Q13.29 12.91 13.50 13.09Q13.72 13.27 13.72 13.64L13.72 13.64Q13.72 13.71 13.69 13.81Q13.65 13.92 13.57 14.02Q13.50 14.13 13.37 14.20Q13.24 14.27 13.08 14.27L13.08 14.27Q13.10 14.41 13.24 14.46Q13.37 14.50 13.48 14.50L13.48 14.50Q13.62 14.50 13.76 14.47Q13.89 14.43 14.02 14.30Q14.15 14.17 14.30 13.91Q14.45 13.65 14.62 13.22L14.62 13.22L14.78 12.70L11.97 6.09L11.13 5.82L11.13 5.04L14.69 5.04L14.80 5.82L13.80 6.09L15.53 10.95L15.58 10.95L17.14 6.09L16.32 5.82L16.32 5.04L19.40 5.04L19.40 5.82L18.55 6.09ZM24.70 12.74L22.83 12.74L20.41 6.08L19.63 5.81L19.63 5.03L23.18 5.03L23.18 5.81L22.26 6.08L23.94 11.21L24.00 11.21L25.72 6.09L24.85 5.82L24.85 5.04L27.93 5.04L27.93 5.82L27.12 6.09L24.70 12.74ZM35.59 8.82L35.59 8.82Q35.59 9.72 35.33 10.51Q35.07 11.30 34.58 11.83L34.58 11.83Q34.12 12.32 33.47 12.53Q32.83 12.74 31.95 12.74L31.95 12.74Q31.07 12.74 30.42 12.53Q29.78 12.32 29.32 11.83L29.32 11.83Q28.83 11.30 28.57 10.51Q28.31 9.72 28.31 8.82L28.31 8.82Q28.31 7.92 28.57 7.13Q28.83 6.34 29.32 5.81L29.32 5.81Q29.78 5.32 30.42 5.11Q31.07 4.90 31.95 4.90L31.95 4.90Q32.83 4.90 33.47 5.11Q34.12 5.32 34.58 5.81L34.58 5.81Q35.07 6.34 35.33 7.13Q35.59 7.92 35.59 8.82ZM30.67 11.24L30.67 11.24Q31.05 11.80 31.95 11.80L31.95 11.80Q32.84 11.80 33.22 11.24L33.22 11.24Q33.67 10.56 33.67 8.82L33.67 8.82Q33.67 7.08 33.22 6.40L33.22 6.40Q32.84 5.84 31.95 5.84L31.95 5.84Q31.05 5.84 30.67 6.40L30.67 6.40Q30.23 7.08 30.23 8.82L30.23 8.82Q30.23 10.56 30.67 11.24Z"></path></g><!----><!----></svg>