<svg data-v-423bf9ae="" xmlns="http://www.w3.org/2000/svg" viewBox="0 0 143.15788465013387 60" class="font"><!----><!----><defs data-v-423bf9ae=""><linearGradient data-v-423bf9ae="" gradientTransform="rotate(25)" id="8f69bed9-518e-461c-a328-cd624f393d4b" x1="0%" y1="0%" x2="100%" y2="0%"><stop data-v-423bf9ae="" offset="0%" style="stop-color: rgb(142, 54, 222); stop-opacity: 1;"></stop><stop data-v-423bf9ae="" offset="100%" style="stop-color: rgb(247, 207, 245); stop-opacity: 1;"></stop></linearGradient></defs><g data-v-423bf9ae="" id="9d97416c-5b6a-4360-8780-466d0d73a5dc" fill="url(#8f69bed9-518e-461c-a328-cd624f393d4b)" transform="matrix(4.784688645892082,0,0,4.784688645892082,-2.822966606169601,-25.071767409346187)"><path d="M9.38 5.24L9.38 5.52Q8.89 5.54 8.65 5.66Q8.41 5.78 8.33 6.05Q8.25 6.33 8.25 6.86L8.25 6.86L8.25 15.22L7.92 15.22L2.04 6.13L2.04 13.52Q2.04 14.07 2.14 14.34Q2.23 14.60 2.49 14.72Q2.76 14.84 3.32 14.87L3.32 14.87L3.32 15.15Q2.81 15.11 1.89 15.11L1.89 15.11Q1.05 15.11 0.59 15.15L0.59 15.15L0.59 14.87Q1.08 14.84 1.32 14.72Q1.55 14.60 1.64 14.33Q1.72 14.06 1.72 13.52L1.72 13.52L1.72 6.72Q1.72 6.19 1.64 5.95Q1.55 5.71 1.32 5.63Q1.09 5.54 0.59 5.52L0.59 5.52L0.59 5.24Q1.05 5.28 1.89 5.28L1.89 5.28Q2.52 5.28 2.98 5.24L2.98 5.24L7.92 12.85L7.92 6.86Q7.92 6.31 7.83 6.05Q7.74 5.78 7.48 5.66Q7.21 5.54 6.65 5.52L6.65 5.52L6.65 5.24Q7.15 5.28 8.08 5.28L8.08 5.28Q8.92 5.28 9.38 5.24L9.38 5.24ZM15.57 7.98Q16.18 7.98 16.63 7.94L16.63 7.94L16.63 8.22Q16.35 8.25 16.14 8.47Q15.92 8.69 15.72 9.20L15.72 9.20L13.43 15.22L12.95 16.44Q12.68 17.12 12.35 17.42L12.35 17.42Q12.14 17.61 11.84 17.70Q11.55 17.78 11.26 17.78L11.26 17.78Q10.84 17.78 10.57 17.56Q10.30 17.33 10.30 16.94L10.30 16.94Q10.30 16.60 10.50 16.40Q10.70 16.20 11.05 16.20L11.05 16.20Q11.35 16.20 11.56 16.37Q11.76 16.55 11.76 16.86L11.76 16.86Q11.76 17.28 11.38 17.49L11.38 17.49Q11.41 17.50 11.47 17.50L11.47 17.50Q12.24 17.50 12.66 16.41L12.66 16.41L13.15 15.13L10.61 9.02Q10.37 8.54 10.14 8.39Q9.90 8.23 9.66 8.23L9.66 8.23L9.66 7.94Q10.26 8.02 11.03 8.02L11.03 8.02Q11.73 8.02 12.85 7.94L12.85 7.94L12.85 8.23Q12.35 8.23 12.12 8.32Q11.89 8.40 11.89 8.72L11.89 8.72Q11.89 9.02 12.05 9.41L12.05 9.41L13.73 13.58L15.29 9.53Q15.44 9.11 15.44 8.89L15.44 8.89Q15.44 8.57 15.19 8.41Q14.94 8.26 14.39 8.22L14.39 8.22L14.39 7.94Q15.13 7.98 15.57 7.98L15.57 7.98ZM22.51 7.98Q23.13 7.98 23.58 7.94L23.58 7.94L23.58 8.22Q23.30 8.25 23.08 8.47Q22.86 8.69 22.67 9.20L22.67 9.20L20.37 15.22L20.13 15.22L17.56 9.02Q17.35 8.54 17.15 8.39Q16.95 8.23 16.74 8.23L16.74 8.23L16.74 7.94Q17.47 7.99 17.98 7.99L17.98 7.99Q19.05 7.99 19.80 7.94L19.80 7.94L19.80 8.23Q19.28 8.23 19.04 8.31Q18.80 8.39 18.80 8.71L18.80 8.71Q18.80 8.90 18.96 9.32L18.96 9.32L20.68 13.58L22.22 9.53Q22.37 9.11 22.37 8.88L22.37 8.88Q22.37 8.55 22.13 8.41Q21.88 8.26 21.34 8.22L21.34 8.22L21.34 7.94Q22.06 7.98 22.51 7.98L22.51 7.98ZM27.33 7.74Q28.76 7.74 29.63 8.69Q30.51 9.63 30.51 11.55L30.51 11.55Q30.51 13.47 29.63 14.41Q28.76 15.34 27.33 15.34L27.33 15.34Q25.90 15.34 25.03 14.41Q24.15 13.47 24.15 11.55L24.15 11.55Q24.15 9.63 25.03 8.69Q25.90 7.74 27.33 7.74L27.33 7.74ZM27.33 8.02Q26.49 8.02 26.00 8.88Q25.51 9.74 25.51 11.55L25.51 11.55Q25.51 13.36 26.00 14.21Q26.49 15.06 27.33 15.06L27.33 15.06Q28.17 15.06 28.66 14.21Q29.15 13.36 29.15 11.55L29.15 11.55Q29.15 9.74 28.66 8.88Q28.17 8.02 27.33 8.02L27.33 8.02Z"></path></g><!----><!----></svg>